<svg width="1920" height="372" viewBox="0 0 1920 372" fill="none" xmlns="http://www.w3.org/2000/svg">
<g clip-path="url(#clip0_604_226)">
<rect width="1920" height="372" fill="#BDBDBD"/>
<rect width="1920" height="372" fill="url(#paint0_linear_604_226)"/>
<path d="M669.636 2.05466L821.365 2.05429C851.076 2.05429 875.164 25.968 875.164 55.4668" stroke="white" stroke-opacity="0.02" stroke-width="10" stroke-linecap="round" stroke-linejoin="round"/>
<path d="M960 277.941V176.68C960 156.85 943.829 140.776 923.887 140.776C903.946 140.776 887.775 156.85 887.775 176.68V192.353" stroke="white" stroke-opacity="0.02" stroke-width="10" stroke-linecap="round" stroke-linejoin="round"/>
<path d="M652.74 338.449C671.854 338.449 687.349 353.859 687.349 372.867C687.349 391.876 671.854 407.285 652.74 407.285C633.626 407.285 618.132 391.876 618.132 372.867V244.251" stroke="white" stroke-opacity="0.02" stroke-width="10" stroke-linecap="round" stroke-linejoin="round"/>
<path d="M34.6082 342.137C15.4945 342.137 0 357.394 0 376.215C0 395.037 15.4945 410.294 34.6082 410.294C53.7217 410.294 69.2163 395.037 69.2163 376.215V237.031" stroke="white" stroke-opacity="0.02" stroke-width="10" stroke-linecap="round" stroke-linejoin="round"/>
<path fill-rule="evenodd" clip-rule="evenodd" d="M663.272 105.581C663.272 73.5186 688.996 47.5268 720.729 47.5268H779.758C811.494 47.5268 837.215 73.5186 837.215 105.581C837.215 137.644 811.494 163.636 779.758 163.636H720.729C688.996 163.636 663.272 137.644 663.272 105.581Z" stroke="white" stroke-opacity="0.02" stroke-width="10" stroke-linecap="round" stroke-linejoin="round"/>
<path d="M904.025 376.604H853.464C816.899 376.604 787.26 406.502 787.26 443.381" stroke="white" stroke-opacity="0.02" stroke-width="10" stroke-linecap="round" stroke-linejoin="round"/>
<path d="M335.248 41.4541C335.248 61.4206 351.416 77.6069 371.36 77.6069C391.304 77.6069 407.473 61.4206 407.473 41.4541V0.601547" stroke="white" stroke-opacity="0.02" stroke-width="10" stroke-linecap="round" stroke-linejoin="round"/>
<path fill-rule="evenodd" clip-rule="evenodd" d="M350.897 260.495C364.194 260.495 374.973 249.72 374.973 236.43C374.973 223.141 364.194 212.366 350.897 212.366C337.6 212.366 326.822 223.141 326.822 236.43C326.822 249.72 337.6 260.495 350.897 260.495Z" stroke="white" stroke-opacity="0.02" stroke-width="10" stroke-linecap="round" stroke-linejoin="round"/>
<path fill-rule="evenodd" clip-rule="evenodd" d="M107.737 192.514C128.679 192.514 145.655 175.544 145.655 154.612C145.655 133.679 128.679 116.711 107.737 116.711C86.795 116.711 69.8184 133.679 69.8184 154.612C69.8184 175.544 86.795 192.514 107.737 192.514Z" stroke="white" stroke-opacity="0.02" stroke-width="10" stroke-linecap="round" stroke-linejoin="round"/>
<path d="M194.709 249.064C175.595 249.064 160.101 264.552 160.101 283.657C160.101 302.761 175.595 318.248 194.709 318.248C213.822 318.248 229.317 302.761 229.317 283.657V249.064" stroke="white" stroke-opacity="0.02" stroke-width="10" stroke-linecap="round" stroke-linejoin="round"/>
<path d="M898.995 437.367C932.693 437.367 960 409.622 960 375.4C960 341.178 932.693 313.436 898.995 313.436H739.11" stroke="white" stroke-opacity="0.02" stroke-width="10" stroke-linecap="round" stroke-linejoin="round"/>
<path d="M652.739 283.956H686.554C709.262 283.956 727.673 266.584 727.673 245.154C727.673 223.723 709.262 206.35 686.554 206.35H618.925C596.214 206.35 577.805 223.723 577.805 245.154" stroke="white" stroke-opacity="0.02" stroke-width="10" stroke-linecap="round" stroke-linejoin="round"/>
<path d="M403.261 122.126H322.198C270.902 122.126 229.317 163.874 229.317 215.374" stroke="white" stroke-opacity="0.02" stroke-width="10" stroke-linecap="round" stroke-linejoin="round"/>
<path d="M23.7744 196.123C23.7744 201.726 23.7744 272.254 23.7744 306.818" stroke="white" stroke-opacity="0.02" stroke-width="10" stroke-linecap="round" stroke-linejoin="round"/>
<path d="M108.038 237.032C154.741 237.032 192.603 199.728 192.603 153.71C192.603 107.692 154.741 70.3878 108.038 70.3878C61.3346 70.3878 23.4736 107.692 23.4736 153.71" stroke="white" stroke-opacity="0.02" stroke-width="10" stroke-linecap="round" stroke-linejoin="round"/>
<path d="M411.507 237.031C411.507 202.809 384.196 175.067 350.505 175.067C316.815 175.067 289.503 202.809 289.503 237.031C289.503 271.254 316.815 298.998 350.505 298.998H510.395" stroke="white" stroke-opacity="0.02" stroke-width="10" stroke-linecap="round" stroke-linejoin="round"/>
<path fill-rule="evenodd" clip-rule="evenodd" d="M157.391 523.997C137.614 523.997 121.58 507.998 121.58 488.262V386.47C121.58 366.735 137.614 350.735 157.391 350.735C177.17 350.735 193.203 366.735 193.203 386.47V488.262C193.203 507.998 177.17 523.997 157.391 523.997Z" stroke="white" stroke-opacity="0.02" stroke-width="10" stroke-linecap="round" stroke-linejoin="round"/>
<path d="M547.11 191.268V195.953C547.11 222.627 525.417 244.251 498.658 244.251C471.9 244.251 450.207 222.627 450.207 195.953V48.8989C450.207 22.225 471.9 0.601547 498.658 0.601547C525.417 0.601547 547.11 22.225 547.11 48.8989V50.3406" stroke="white" stroke-opacity="0.02" stroke-width="10" stroke-linecap="round" stroke-linejoin="round"/>
<path d="M746.111 353.141C746.111 349.277 742.976 346.144 739.11 346.144C735.243 346.144 732.11 349.277 732.11 353.141H746.111ZM670.241 570.005C666.375 570.005 663.241 573.137 663.241 577.002C663.241 580.866 666.375 583.999 670.241 583.999V570.005ZM571.185 649.954C567.319 649.954 564.184 653.087 564.184 656.951C564.184 660.816 567.319 663.948 571.185 663.948V649.954ZM654.601 596.754C654.601 592.89 651.467 589.757 647.6 589.757C643.734 589.757 640.6 592.89 640.6 596.754H654.601ZM732.11 353.141V438.769H746.111V353.141H732.11ZM732.11 438.769C732.11 448.323 724.286 456.157 714.513 456.157V470.151C731.909 470.151 746.111 456.16 746.111 438.769H732.11ZM714.513 456.157C697.114 456.157 682.917 470.161 682.917 487.551H696.918C696.918 477.991 704.745 470.151 714.513 470.151V456.157ZM682.917 487.551V492.61H696.918V487.551H682.917ZM682.917 492.61C682.917 509.998 697.114 524.004 714.513 524.004V510.009C704.745 510.009 696.918 502.168 696.918 492.61H682.917ZM714.513 524.004C724.283 524.004 732.11 531.843 732.11 541.401H746.111C746.111 524.013 731.914 510.009 714.513 510.009V524.004ZM732.11 541.401V547.003H746.111V541.401H732.11ZM732.11 547.003C732.11 559.656 721.753 570.005 708.865 570.005V583.999C729.385 583.999 746.111 567.486 746.111 547.003H732.11ZM708.865 570.005H693.197V583.999H708.865V570.005ZM693.197 570.005H670.241V583.999H693.197V570.005ZM571.185 663.948H587.301V649.954H571.185V663.948ZM587.301 663.948C624.462 663.948 654.601 633.873 654.601 596.754H640.6C640.6 626.128 616.745 649.954 587.301 649.954V663.948Z" fill="white" fill-opacity="0.05"/>
<path d="M960 93.2486C936.064 93.2486 916.665 73.7208 916.665 49.6323C916.665 25.5437 936.064 6.01602 960 6.01602" stroke="white" stroke-opacity="0.02" stroke-width="10" stroke-linecap="round" stroke-linejoin="round"/>
<path d="M402.056 587.867C405.923 587.867 409.057 584.735 409.057 580.87C409.057 577.006 405.923 573.873 402.056 573.873V587.867ZM338.632 685.88C342.498 685.88 345.632 682.749 345.632 678.883C345.632 675.019 342.498 671.886 338.632 671.886V685.88ZM217.784 856.462C221.652 856.462 224.785 853.329 224.785 849.465C224.785 845.601 221.652 842.467 217.784 842.467V856.462ZM345.953 729.776C345.953 725.91 342.818 722.778 338.953 722.778C335.086 722.778 331.952 725.91 331.952 729.776H345.953ZM238.581 353.743C238.581 349.879 235.447 346.745 231.581 346.745C227.714 346.745 224.581 349.879 224.581 353.743H238.581ZM395.056 529.036C395.056 532.901 398.19 536.033 402.056 536.033C405.923 536.033 409.057 532.901 409.057 529.036H395.056ZM402.056 573.873H294.057V587.867H402.056V573.873ZM294.057 573.873C263.003 573.873 237.767 598.912 237.767 629.877H251.767C251.767 606.711 270.666 587.867 294.057 587.867V573.873ZM237.767 629.877C237.767 660.842 263.003 685.88 294.057 685.88V671.886C270.666 671.886 251.767 653.042 251.767 629.877H237.767ZM294.057 685.88H338.632V671.886H294.057V685.88ZM217.784 842.467H211.347V856.462H217.784V842.467ZM211.347 842.467C196.226 842.467 183.954 830.196 183.954 815.051H169.953C169.953 837.909 188.478 856.462 211.347 856.462V842.467ZM183.954 815.051C183.954 799.898 196.227 787.626 211.347 787.626V773.631C188.478 773.631 169.953 792.185 169.953 815.051H183.954ZM211.347 787.626H288.135V773.631H211.347V787.626ZM288.135 787.626C320.074 787.626 345.953 761.719 345.953 729.776H331.952C331.952 754.006 312.327 773.631 288.135 773.631V787.626ZM224.581 353.743V392.418H238.581V353.743H224.581ZM224.581 392.418C224.581 443.383 265.869 484.71 316.819 484.71V470.715C273.616 470.715 238.581 435.669 238.581 392.418H224.581ZM316.819 484.71H350.768V470.715H316.819V484.71ZM350.768 484.71C375.221 484.71 395.056 504.548 395.056 529.036H409.057C409.057 496.835 382.967 470.715 350.768 470.715V484.71Z" fill="white" fill-opacity="0.05"/>
<path d="M205.241 46.6242C205.241 72.0417 225.722 92.6469 250.985 92.6469C276.248 92.6469 296.727 72.0417 296.727 46.6242C296.727 21.2066 276.248 0.601547 250.985 0.601547H205.241" stroke="white" stroke-opacity="0.02" stroke-width="10" stroke-linecap="round" stroke-linejoin="round"/>
<path d="M888.376 234.578V246.78C888.376 263.99 874.375 277.942 857.113 277.942C839.844 277.942 825.842 263.99 825.842 246.78V236.673C825.842 219.593 811.949 205.748 794.819 205.748C777.68 205.748 763.787 219.593 763.787 236.673V249.112" stroke="white" stroke-opacity="0.02" stroke-width="10" stroke-linecap="round" stroke-linejoin="round"/>
<path d="M578.407 84.0987C557.133 84.0987 539.887 101.096 539.887 122.063C539.887 143.029 557.133 160.027 578.407 160.027C599.68 160.027 616.927 143.029 616.927 122.063V0" stroke="white" stroke-opacity="0.02" stroke-width="10" stroke-linecap="round" stroke-linejoin="round"/>
<path d="M349.692 421.725H320.087C300.205 421.725 284.087 405.563 284.087 385.628C284.087 365.692 300.205 349.532 320.087 349.532H379.297C399.18 349.532 415.298 365.692 415.298 385.628V388.835C415.298 406.999 400.611 421.725 382.495 421.725" stroke="white" stroke-opacity="0.02" stroke-width="10" stroke-linecap="round" stroke-linejoin="round"/>
<path d="M446.596 349.532H505.804C545.57 349.532 577.805 317.21 577.805 277.34" stroke="white" stroke-opacity="0.02" stroke-width="10" stroke-linecap="round" stroke-linejoin="round"/>
<path d="M1629.64 2.05466L1781.37 2.05429C1811.08 2.05429 1835.16 25.968 1835.16 55.4668" stroke="white" stroke-opacity="0.02" stroke-width="10" stroke-linecap="round" stroke-linejoin="round"/>
<path d="M1920 277.941V176.68C1920 156.85 1903.83 140.776 1883.89 140.776C1863.95 140.776 1847.77 156.85 1847.77 176.68V192.353" stroke="white" stroke-opacity="0.02" stroke-width="10" stroke-linecap="round" stroke-linejoin="round"/>
<path d="M1612.74 338.449C1631.85 338.449 1647.35 353.859 1647.35 372.867C1647.35 391.876 1631.85 407.285 1612.74 407.285C1593.63 407.285 1578.13 391.876 1578.13 372.867V244.251" stroke="white" stroke-opacity="0.02" stroke-width="10" stroke-linecap="round" stroke-linejoin="round"/>
<path d="M994.608 342.137C975.495 342.137 960 357.394 960 376.215C960 395.037 975.495 410.294 994.608 410.294C1013.72 410.294 1029.22 395.037 1029.22 376.215V237.031" stroke="white" stroke-opacity="0.02" stroke-width="10" stroke-linecap="round" stroke-linejoin="round"/>
<path fill-rule="evenodd" clip-rule="evenodd" d="M1623.27 105.581C1623.27 73.5186 1649 47.5268 1680.73 47.5268H1739.76C1771.49 47.5268 1797.22 73.5186 1797.22 105.581C1797.22 137.644 1771.49 163.636 1739.76 163.636H1680.73C1649 163.636 1623.27 137.644 1623.27 105.581Z" stroke="white" stroke-opacity="0.02" stroke-width="10" stroke-linecap="round" stroke-linejoin="round"/>
<path d="M1864.03 376.604H1813.46C1776.9 376.604 1747.26 406.502 1747.26 443.381" stroke="white" stroke-opacity="0.02" stroke-width="10" stroke-linecap="round" stroke-linejoin="round"/>
<path d="M1295.25 41.4541C1295.25 61.4206 1311.42 77.6069 1331.36 77.6069C1351.3 77.6069 1367.47 61.4206 1367.47 41.4541V0.601547" stroke="white" stroke-opacity="0.02" stroke-width="10" stroke-linecap="round" stroke-linejoin="round"/>
<path fill-rule="evenodd" clip-rule="evenodd" d="M1310.9 260.495C1324.19 260.495 1334.97 249.72 1334.97 236.43C1334.97 223.141 1324.19 212.366 1310.9 212.366C1297.6 212.366 1286.82 223.141 1286.82 236.43C1286.82 249.72 1297.6 260.495 1310.9 260.495Z" stroke="white" stroke-opacity="0.02" stroke-width="10" stroke-linecap="round" stroke-linejoin="round"/>
<path fill-rule="evenodd" clip-rule="evenodd" d="M1067.74 192.514C1088.68 192.514 1105.66 175.544 1105.66 154.612C1105.66 133.679 1088.68 116.711 1067.74 116.711C1046.8 116.711 1029.82 133.679 1029.82 154.612C1029.82 175.544 1046.8 192.514 1067.74 192.514Z" stroke="white" stroke-opacity="0.02" stroke-width="10" stroke-linecap="round" stroke-linejoin="round"/>
<path d="M1154.71 249.064C1135.6 249.064 1120.1 264.552 1120.1 283.657C1120.1 302.761 1135.6 318.248 1154.71 318.248C1173.82 318.248 1189.32 302.761 1189.32 283.657V249.064" stroke="white" stroke-opacity="0.02" stroke-width="10" stroke-linecap="round" stroke-linejoin="round"/>
<path d="M1859 437.367C1892.69 437.367 1920 409.622 1920 375.4C1920 341.178 1892.69 313.436 1859 313.436H1699.11" stroke="white" stroke-opacity="0.02" stroke-width="10" stroke-linecap="round" stroke-linejoin="round"/>
<path d="M1612.74 283.956H1646.55C1669.26 283.956 1687.67 266.584 1687.67 245.154C1687.67 223.723 1669.26 206.35 1646.55 206.35H1578.93C1556.21 206.35 1537.8 223.723 1537.8 245.154" stroke="white" stroke-opacity="0.02" stroke-width="10" stroke-linecap="round" stroke-linejoin="round"/>
<path d="M1363.26 122.126H1282.2C1230.9 122.126 1189.32 163.874 1189.32 215.374" stroke="white" stroke-opacity="0.02" stroke-width="10" stroke-linecap="round" stroke-linejoin="round"/>
<path d="M983.774 196.123C983.774 201.726 983.774 272.254 983.774 306.818" stroke="white" stroke-opacity="0.02" stroke-width="10" stroke-linecap="round" stroke-linejoin="round"/>
<path d="M1068.04 237.032C1114.74 237.032 1152.6 199.728 1152.6 153.71C1152.6 107.692 1114.74 70.3878 1068.04 70.3878C1021.33 70.3878 983.474 107.692 983.474 153.71" stroke="white" stroke-opacity="0.02" stroke-width="10" stroke-linecap="round" stroke-linejoin="round"/>
<path d="M1371.51 237.031C1371.51 202.809 1344.2 175.067 1310.51 175.067C1276.82 175.067 1249.5 202.809 1249.5 237.031C1249.5 271.254 1276.82 298.998 1310.51 298.998H1470.39" stroke="white" stroke-opacity="0.02" stroke-width="10" stroke-linecap="round" stroke-linejoin="round"/>
<path fill-rule="evenodd" clip-rule="evenodd" d="M1117.39 523.997C1097.61 523.997 1081.58 507.998 1081.58 488.262V386.47C1081.58 366.735 1097.61 350.735 1117.39 350.735C1137.17 350.735 1153.2 366.735 1153.2 386.47V488.262C1153.2 507.998 1137.17 523.997 1117.39 523.997Z" stroke="white" stroke-opacity="0.02" stroke-width="10" stroke-linecap="round" stroke-linejoin="round"/>
<path d="M1507.11 191.268V195.953C1507.11 222.627 1485.42 244.251 1458.66 244.251C1431.9 244.251 1410.21 222.627 1410.21 195.953V48.8989C1410.21 22.225 1431.9 0.601547 1458.66 0.601547C1485.42 0.601547 1507.11 22.225 1507.11 48.8989V50.3406" stroke="white" stroke-opacity="0.02" stroke-width="10" stroke-linecap="round" stroke-linejoin="round"/>
<path d="M1706.11 353.141C1706.11 349.277 1702.98 346.144 1699.11 346.144C1695.24 346.144 1692.11 349.277 1692.11 353.141H1706.11ZM1630.24 570.005C1626.38 570.005 1623.24 573.137 1623.24 577.002C1623.24 580.866 1626.38 583.999 1630.24 583.999V570.005ZM1531.18 649.954C1527.32 649.954 1524.18 653.087 1524.18 656.951C1524.18 660.816 1527.32 663.948 1531.18 663.948V649.954ZM1614.6 596.754C1614.6 592.89 1611.47 589.757 1607.6 589.757C1603.73 589.757 1600.6 592.89 1600.6 596.754H1614.6ZM1692.11 353.141V438.769H1706.11V353.141H1692.11ZM1692.11 438.769C1692.11 448.323 1684.29 456.157 1674.51 456.157V470.151C1691.91 470.151 1706.11 456.16 1706.11 438.769H1692.11ZM1674.51 456.157C1657.11 456.157 1642.92 470.161 1642.92 487.551H1656.92C1656.92 477.991 1664.74 470.151 1674.51 470.151V456.157ZM1642.92 487.551V492.61H1656.92V487.551H1642.92ZM1642.92 492.61C1642.92 509.998 1657.11 524.004 1674.51 524.004V510.009C1664.74 510.009 1656.92 502.168 1656.92 492.61H1642.92ZM1674.51 524.004C1684.28 524.004 1692.11 531.843 1692.11 541.401H1706.11C1706.11 524.013 1691.91 510.009 1674.51 510.009V524.004ZM1692.11 541.401V547.003H1706.11V541.401H1692.11ZM1692.11 547.003C1692.11 559.656 1681.75 570.005 1668.87 570.005V583.999C1689.39 583.999 1706.11 567.486 1706.11 547.003H1692.11ZM1668.87 570.005H1653.2V583.999H1668.87V570.005ZM1653.2 570.005H1630.24V583.999H1653.2V570.005ZM1531.18 663.948H1547.3V649.954H1531.18V663.948ZM1547.3 663.948C1584.46 663.948 1614.6 633.873 1614.6 596.754H1600.6C1600.6 626.128 1576.74 649.954 1547.3 649.954V663.948Z" fill="white" fill-opacity="0.05"/>
<path d="M1920 93.2486C1896.06 93.2486 1876.66 73.7208 1876.66 49.6323C1876.66 25.5437 1896.06 6.01602 1920 6.01602" stroke="white" stroke-opacity="0.02" stroke-width="10" stroke-linecap="round" stroke-linejoin="round"/>
<path d="M1362.06 587.867C1365.92 587.867 1369.06 584.735 1369.06 580.87C1369.06 577.006 1365.92 573.873 1362.06 573.873V587.867ZM1298.63 685.88C1302.5 685.88 1305.63 682.749 1305.63 678.883C1305.63 675.019 1302.5 671.886 1298.63 671.886V685.88ZM1177.78 856.462C1181.65 856.462 1184.78 853.329 1184.78 849.465C1184.78 845.601 1181.65 842.467 1177.78 842.467V856.462ZM1305.95 729.776C1305.95 725.91 1302.82 722.778 1298.95 722.778C1295.09 722.778 1291.95 725.91 1291.95 729.776H1305.95ZM1198.58 353.743C1198.58 349.879 1195.45 346.745 1191.58 346.745C1187.71 346.745 1184.58 349.879 1184.58 353.743H1198.58ZM1355.06 529.036C1355.06 532.901 1358.19 536.033 1362.06 536.033C1365.92 536.033 1369.06 532.901 1369.06 529.036H1355.06ZM1362.06 573.873H1254.06V587.867H1362.06V573.873ZM1254.06 573.873C1223 573.873 1197.77 598.912 1197.77 629.877H1211.77C1211.77 606.711 1230.67 587.867 1254.06 587.867V573.873ZM1197.77 629.877C1197.77 660.842 1223 685.88 1254.06 685.88V671.886C1230.67 671.886 1211.77 653.042 1211.77 629.877H1197.77ZM1254.06 685.88H1298.63V671.886H1254.06V685.88ZM1177.78 842.467H1171.35V856.462H1177.78V842.467ZM1171.35 842.467C1156.23 842.467 1143.95 830.196 1143.95 815.051H1129.95C1129.95 837.909 1148.48 856.462 1171.35 856.462V842.467ZM1143.95 815.051C1143.95 799.898 1156.23 787.626 1171.35 787.626V773.631C1148.48 773.631 1129.95 792.185 1129.95 815.051H1143.95ZM1171.35 787.626H1248.13V773.631H1171.35V787.626ZM1248.13 787.626C1280.07 787.626 1305.95 761.719 1305.95 729.776H1291.95C1291.95 754.006 1272.33 773.631 1248.13 773.631V787.626ZM1184.58 353.743V392.418H1198.58V353.743H1184.58ZM1184.58 392.418C1184.58 443.383 1225.87 484.71 1276.82 484.71V470.715C1233.62 470.715 1198.58 435.669 1198.58 392.418H1184.58ZM1276.82 484.71H1310.77V470.715H1276.82V484.71ZM1310.77 484.71C1335.22 484.71 1355.06 504.548 1355.06 529.036H1369.06C1369.06 496.835 1342.97 470.715 1310.77 470.715V484.71Z" fill="white" fill-opacity="0.05"/>
<path d="M1165.24 46.6242C1165.24 72.0417 1185.72 92.6469 1210.99 92.6469C1236.25 92.6469 1256.73 72.0417 1256.73 46.6242C1256.73 21.2066 1236.25 0.601547 1210.99 0.601547H1165.24" stroke="white" stroke-opacity="0.02" stroke-width="10" stroke-linecap="round" stroke-linejoin="round"/>
<path d="M1848.38 234.578V246.78C1848.38 263.99 1834.37 277.942 1817.11 277.942C1799.84 277.942 1785.84 263.99 1785.84 246.78V236.673C1785.84 219.593 1771.95 205.748 1754.82 205.748C1737.68 205.748 1723.79 219.593 1723.79 236.673V249.112" stroke="white" stroke-opacity="0.02" stroke-width="10" stroke-linecap="round" stroke-linejoin="round"/>
<path d="M1538.41 84.0987C1517.13 84.0987 1499.89 101.096 1499.89 122.063C1499.89 143.029 1517.13 160.027 1538.41 160.027C1559.68 160.027 1576.93 143.029 1576.93 122.063V0" stroke="white" stroke-opacity="0.02" stroke-width="10" stroke-linecap="round" stroke-linejoin="round"/>
<path d="M1309.69 421.725H1280.09C1260.2 421.725 1244.09 405.563 1244.09 385.628C1244.09 365.692 1260.2 349.532 1280.09 349.532H1339.3C1359.18 349.532 1375.3 365.692 1375.3 385.628V388.835C1375.3 406.999 1360.61 421.725 1342.5 421.725" stroke="white" stroke-opacity="0.02" stroke-width="10" stroke-linecap="round" stroke-linejoin="round"/>
<path d="M1406.6 349.532H1465.8C1505.57 349.532 1537.81 317.21 1537.81 277.34" stroke="white" stroke-opacity="0.02" stroke-width="10" stroke-linecap="round" stroke-linejoin="round"/>
</g>
<defs>
<linearGradient id="paint0_linear_604_226" x1="0" y1="186" x2="1920" y2="186" gradientUnits="userSpaceOnUse">
<stop stop-color="#005371"/>
<stop offset="1" stop-color="#008189"/>
</linearGradient>
<clipPath id="clip0_604_226">
<rect width="1920" height="372" fill="white"/>
</clipPath>
</defs>
</svg>
