<svg width="20" height="20" viewBox="0 0 20 20" fill="none" xmlns="http://www.w3.org/2000/svg">
<g clip-path="url(#clip0_735_996)">
<path d="M18.3332 4.5835V15.8335C18.3332 17.2143 14.6023 18.3335 9.99984 18.3335C5.39734 18.3335 1.6665 17.2143 1.6665 15.8335V4.5835" stroke="#999999" stroke-width="1.5" stroke-linecap="round" stroke-linejoin="round"/>
<path d="M18.3332 12.0835C18.3332 13.4643 14.6023 14.5835 9.99984 14.5835C5.39734 14.5835 1.6665 13.4643 1.6665 12.0835M18.3332 8.3335C18.3332 9.71433 14.6023 10.8335 9.99984 10.8335C5.39734 10.8335 1.6665 9.71433 1.6665 8.3335" stroke="#999999" stroke-width="1.5" stroke-linecap="round" stroke-linejoin="round"/>
<path d="M9.99984 6.66675C14.6022 6.66675 18.3332 5.54746 18.3332 4.16675C18.3332 2.78604 14.6022 1.66675 9.99984 1.66675C5.39746 1.66675 1.6665 2.78604 1.6665 4.16675C1.6665 5.54746 5.39746 6.66675 9.99984 6.66675Z" stroke="#D2D2D2" stroke-width="1.5" stroke-linecap="round" stroke-linejoin="round"/>
</g>
<defs>
<clipPath id="clip0_735_996">
<rect width="20" height="20" fill="white"/>
</clipPath>
</defs>
</svg>
